ply
format ascii 1.0
comment VCGLIB generated
element vertex 288
property float x
property float y
property float z
element face 190
property list uchar int vertex_indices
end_header
-37.9109 -7.24676 -62.875 
-94.7099 -62.097 -80.3125 
-37.9109 -7.24676 -80.3125 
-94.7099 -62.097 -0.4375 
-37.9109 -7.24676 -0.4375 
-66.8643 -35.2068 -0.4375 
-66.8643 -35.2068 0 
-37.9109 -7.24676 -0.4375 
-66.8643 -35.2068 -0.4375 
-37.9109 -7.24676 0 
-51.6887 -69.8158 -0.4375 
-61.2636 -41.0064 -0.4375 
-70.705 -50.1238 -0.4375 
-37.9109 -7.24676 -0.4375 
-66.8643 -35.2068 -0.4375 
52.4357 30.736 -0.4375 
27.8188 56.2276 -0.4375 
33.4195 50.428 -0.4375 
-66.8643 -35.2068 0 
-94.7099 -62.097 0 
-94.7099 -62.097 0 
-82.4666 -74.7753 -125.625 
-82.4666 -74.7753 0 
-94.7099 -62.097 -125.625 
-94.7099 -62.097 -0.4375 
-94.7099 -62.097 -80.3125 
-98.8012 -66.0478 -133.813 
-94.7099 -62.097 -125.625 
-78.0752 -46.033 -133.813 
-98.8012 -66.0478 0 
-94.7099 -62.097 -80.3125 
-94.7099 -62.097 -0.4375 
-94.7099 -62.097 0 
-78.0752 -46.033 -125.625 
-134.002 -21.4093 0 
-134.002 -21.4093 -62.875 
-206.902 54.0817 -80.3125 
-206.902 54.0817 -62.875 
-150.103 108.932 -80.3125 
-94.7099 -62.097 -80.3125 
-206.902 54.0817 -80.3125 
-37.9109 -7.24676 -80.3125 
-37.9109 -7.24676 -125.625 
-49.6002 -18.535 -125.625 
-45.5089 -14.5841 -125.625 
-49.6002 -18.535 -116.438 
-78.0752 -46.033 -116.438 
-94.7099 -62.097 -125.625 
-78.0752 -46.033 -125.625 
-37.9109 -7.24676 -125.625 
75.8635 102.624 -125.625 
-28.4102 1.92795 -125.625 
27.8188 56.2276 -62.875 
75.8635 102.624 0 
-37.9109 -7.24676 -80.3125 
-37.9109 -7.24676 -62.875 
27.8188 56.2276 -0.4375 
27.8188 56.2276 0 
-150.103 108.932 -80.3125 
-37.9109 -7.24676 -62.875 
-37.9109 -7.24676 -80.3125 
-77.2025 33.4409 -62.875 
-150.103 108.932 -62.875 
-77.2025 33.4409 0 
-37.9109 -7.24676 -0.4375 
-37.9109 -7.24676 0 
-37.9109 -7.24676 -62.875 
-77.2025 33.4409 -62.875 
27.8188 56.2276 -0.4375 
27.8188 56.2276 -62.875 
-66.8643 -35.2068 0 
-61.2636 -41.0064 -0.4375 
-61.2636 -41.0064 0 
-66.8643 -35.2068 -0.4375 
-124.274 -12.0158 0 
-94.7099 -62.097 0 
-134.002 -21.4093 0 
-106.156 5.48089 0 
-77.2025 33.4409 0 
-66.8643 -35.2068 0 
-37.9109 -7.24676 0 
-70.705 -50.1238 -62.875 
-61.2636 -41.0064 -30.4375 
33.4195 50.428 -62.875 
-70.705 -50.1238 -0.4375 
-61.2636 -41.0064 -0.4375 
33.4195 50.428 -30.4375 
-70.705 -50.1238 -0.4375 
-51.6887 -69.8158 -62.875 
-51.6887 -69.8158 -0.4375 
-70.705 -50.1238 -62.875 
52.4357 30.736 -0.4375 
-51.6887 -69.8158 -62.875 
52.4357 30.736 -62.875 
-51.6887 -69.8158 -0.4375 
33.4195 50.428 -62.875 
52.4357 30.736 -0.4375 
52.4357 30.736 -62.875 
33.4195 50.428 -0.4375 
33.4195 50.428 -30.4375 
27.8188 56.2276 -0.4375 
33.4195 50.428 0 
27.8188 56.2276 0 
-78.0752 -46.033 -125.625 
-82.4666 -74.7753 -125.625 
-94.7099 -62.097 -125.625 
-16.1668 -10.7504 -125.625 
-49.6002 -18.535 -125.625 
-45.5089 -14.5841 -125.625 
-37.9109 -7.24676 -125.625 
-28.4102 1.92795 -125.625 
-35.7942 -123.106 -125.625 
-35.7942 -123.106 0 
-16.1668 -10.7504 -125.625 
-86.5578 -78.7262 -133.813 
-16.1668 -10.7504 -133.813 
-82.4666 -74.7753 -125.625 
-86.5578 -78.7262 0 
-82.4666 -74.7753 0 
-86.5578 -78.7262 0 
-94.7099 -62.097 0 
-98.8012 -66.0478 0 
-82.4666 -74.7753 0 
-149.408 27.8342 -116.438 
-78.0752 -46.033 -125.625 
-78.0752 -46.033 -116.438 
-78.0752 -46.033 -133.813 
-149.408 27.8342 -133.813 
-144.975 103.621 -133.813 
-141.98 85.3142 -133.813 
-152.573 96.2842 -133.813 
-37.9109 -7.24676 -133.813 
-120.933 55.3322 -133.813 
-78.0752 -46.033 -133.813 
-86.5578 -78.7262 -133.813 
-98.8012 -66.0478 -133.813 
-16.1668 -10.7504 -133.813 
-28.4102 1.92795 -133.813 
-149.408 27.8342 -133.813 
-146.071 81.3633 -133.813 
-98.8012 -66.0478 0 
-86.5578 -78.7262 -133.813 
-86.5578 -78.7262 0 
-98.8012 -66.0478 -133.813 
-134.002 -21.4093 0 
-124.274 -12.0158 -62.875 
-134.002 -21.4093 -62.875 
-124.274 -12.0158 0 
-134.002 -21.4093 -62.875 
-197.175 63.4752 -62.875 
-206.902 54.0817 -62.875 
-124.274 -12.0158 -62.875 
-206.902 54.0817 -62.875 
-150.103 108.932 -80.3125 
-206.902 54.0817 -80.3125 
-150.103 108.932 -62.875 
-197.175 63.4752 -62.875 
-179.057 80.9719 -62.875 
-78.0752 -46.033 -116.438 
-120.933 55.3322 -116.438 
-149.408 27.8342 -116.438 
-49.6002 -18.535 -116.438 
-120.933 55.3322 -116.438 
-49.6002 -18.535 -125.625 
-49.6002 -18.535 -116.438 
-120.933 55.3322 -125.625 
-141.98 85.3142 -125.625 
-120.933 55.3322 -125.625 
-146.071 81.3633 -125.625 
-45.5089 -14.5841 -125.625 
-49.6002 -18.535 -125.625 
-141.98 85.3142 -125.625 
-134.909 92.8376 -125.625 
-142.327 85.6739 -125.625 
-45.5089 -14.5841 -125.625 
-144.975 103.621 -125.625 
-145.155 103.448 -125.625 
-37.9109 -7.24676 -125.625 
75.8635 102.624 -125.625 
134.779 41.6149 0 
134.779 41.6149 -125.625 
75.8635 102.624 0 
75.8635 102.624 -125.625 
-16.1668 -10.7504 -125.625 
-28.4102 1.92795 -125.625 
-35.7942 -123.106 -125.625 
-82.4666 -74.7753 -125.625 
134.779 41.6149 -125.625 
-28.4102 1.92795 -125.625 
-37.9109 -7.24676 -133.813 
-28.4102 1.92795 -133.813 
-84.3736 172.406 -62.875 
-77.2025 33.4409 -62.875 
-150.103 108.932 -62.875 
27.8188 56.2276 -62.875 
-37.9109 -7.24676 -62.875 
-84.3736 172.406 -62.875 
27.8188 56.2276 -62.875 
-84.3736 172.406 0 
-106.156 5.48089 -62.875 
-179.057 80.9719 -62.875 
-77.2025 33.4409 0 
-106.156 5.48089 -62.875 
-77.2025 33.4409 -62.875 
-124.274 -12.0158 -62.875 
-124.274 -12.0158 0 
-106.156 5.48089 0 
-124.274 -12.0158 0 
-179.057 80.9719 0 
-197.175 63.4752 0 
-106.156 5.48089 0 
33.4195 50.428 -62.875 
-51.6887 -69.8158 -62.875 
-70.705 -50.1238 -62.875 
52.4357 30.736 -62.875 
-28.4102 1.92795 -133.813 
-16.1668 -10.7504 -125.625 
-16.1668 -10.7504 -133.813 
-28.4102 1.92795 -125.625 
134.779 41.6149 0 
-35.7942 -123.106 -125.625 
134.779 41.6149 -125.625 
-35.7942 -123.106 0 
-149.408 27.8342 -116.438 
-120.933 55.3322 -133.813 
-149.408 27.8342 -133.813 
-120.933 55.3322 -125.625 
-120.933 55.3322 -116.438 
-146.071 81.3633 -133.813 
-120.933 55.3322 -125.625 
-120.933 55.3322 -133.813 
-146.071 81.3633 -125.625 
-141.98 85.3142 -125.625 
-146.071 81.3633 -133.813 
-141.98 85.3142 -133.813 
-146.071 81.3633 -125.625 
-152.573 96.2842 -133.813 
-141.98 85.3142 -125.625 
-141.98 85.3142 -133.813 
-142.327 85.6739 -125.625 
-152.573 96.2842 -125.625 
-144.975 103.621 -125.625 
-152.573 96.2842 -133.813 
-144.975 103.621 -133.813 
-152.573 96.2842 -125.625 
-145.155 103.448 -125.625 
-144.975 103.621 -125.625 
-37.9109 -7.24676 -133.813 
-37.9109 -7.24676 -125.625 
-144.975 103.621 -133.813 
-197.175 63.4752 0 
-124.274 -12.0158 -62.875 
-124.274 -12.0158 0 
-197.175 63.4752 -62.875 
-124.274 -12.0158 -62.875 
-197.175 63.4752 -62.875 
-179.057 80.9719 0 
-84.3736 172.406 -62.875 
-84.3736 172.406 0 
-197.175 63.4752 0 
-142.327 85.6739 -125.625 
-145.155 103.448 -125.625 
-152.573 96.2842 -125.625 
-134.909 92.8376 -125.625 
-145.155 103.448 -80.2908 
-134.909 92.8376 -125.625 
-134.909 92.8376 -80.2908 
-145.155 103.448 -125.625 
-142.327 85.6739 -80.2908 
-134.909 92.8376 -125.625 
-142.327 85.6739 -125.625 
-134.909 92.8376 -80.2908 
-179.057 80.9719 -62.875 
-106.156 5.48089 0 
-106.156 5.48089 -62.875 
-179.057 80.9719 0 
-142.327 85.6739 -125.625 
-152.573 96.2842 -80.2908 
-142.327 85.6739 -80.2908 
-152.573 96.2842 -125.625 
-145.155 103.448 -125.625 
-152.573 96.2842 -80.2908 
-152.573 96.2842 -125.625 
-145.155 103.448 -80.2908 
-145.155 103.448 -80.2908 
-142.327 85.6739 -80.2908 
-152.573 96.2842 -80.2908 
-134.909 92.8376 -80.2908 
3 0 1 2 
3 1 0 3 
3 3 0 4 
3 3 4 5 
3 6 7 8 
3 7 6 9 
3 10 11 12 
3 11 13 14 
3 13 11 10 
3 13 10 15 
3 13 15 16 
3 16 15 17 
3 18 3 5 
3 3 18 19 
3 20 21 22 
3 21 20 23 
3 23 20 24 
3 23 24 25 
3 26 27 28 
3 27 26 29 
3 27 29 30 
3 30 29 31 
3 31 29 32 
3 33 28 27 
3 34 24 20 
3 24 34 25 
3 25 34 35 
3 25 35 36 
3 36 35 37 
3 38 39 40 
3 39 38 41 
3 42 43 44 
3 43 42 2 
3 43 2 45 
3 45 2 46 
3 46 47 48 
3 47 46 1 
3 1 46 2 
3 49 50 51 
3 50 49 52 
3 50 52 53 
3 52 49 54 
3 52 54 55 
3 53 52 56 
3 53 56 57 
3 58 59 60 
3 59 58 61 
3 61 58 62 
3 63 64 65 
3 64 63 66 
3 66 63 67 
3 68 0 69 
3 0 68 4 
3 70 71 72 
3 71 70 73 
3 74 75 76 
3 75 74 77 
3 75 77 78 
3 75 78 79 
3 79 78 80 
3 81 82 83 
3 82 81 84 
3 82 84 85 
3 86 83 82 
3 87 88 89 
3 88 87 90 
3 91 92 93 
3 92 91 94 
3 95 96 97 
3 96 95 98 
3 98 95 99 
3 100 101 98 
3 101 100 102 
3 103 104 105 
3 104 103 106 
3 106 103 107 
3 106 107 108 
3 106 108 109 
3 106 109 110 
3 22 111 112 
3 111 22 21 
3 113 114 115 
3 114 113 116 
3 114 116 117 
3 117 116 118 
3 119 120 121 
3 120 119 122 
3 123 124 125 
3 124 123 126 
3 126 123 127 
3 128 129 130 
3 129 128 131 
3 129 131 132 
3 132 131 133 
3 133 134 135 
3 134 133 136 
3 136 133 131 
3 136 131 137 
3 133 138 132 
3 132 139 129 
3 140 141 142 
3 141 140 143 
3 144 145 146 
3 145 144 147 
3 148 149 150 
3 149 148 151 
3 152 153 154 
3 153 152 155 
3 155 152 156 
3 155 156 157 
3 43 46 48 
3 46 43 45 
3 158 159 160 
3 159 158 161 
3 162 163 164 
3 163 162 165 
3 166 167 168 
3 167 166 169 
3 167 169 170 
3 171 172 173 
3 172 171 174 
3 172 175 176 
3 175 172 177 
3 177 172 174 
3 178 179 180 
3 179 178 181 
3 182 183 184 
3 183 185 186 
3 185 183 187 
3 187 183 182 
3 188 189 190 
3 189 188 42 
3 191 192 193 
3 192 191 194 
3 192 194 195 
3 196 100 197 
3 100 196 102 
3 102 196 198 
3 193 199 200 
3 199 193 192 
3 201 202 203 
3 202 201 204 
3 204 201 205 
3 205 201 206 
3 207 208 209 
3 208 207 210 
3 211 212 213 
3 212 211 214 
3 215 216 217 
3 216 215 218 
3 219 220 221 
3 220 219 222 
3 223 224 225 
3 224 223 226 
3 226 223 227 
3 228 229 230 
3 229 228 231 
3 232 233 234 
3 233 232 235 
3 236 237 238 
3 237 236 239 
3 239 236 240 
3 241 242 243 
3 242 241 244 
3 244 241 245 
3 246 247 248 
3 247 246 249 
3 250 251 252 
3 251 250 253 
3 200 254 255 
3 254 200 199 
3 256 155 157 
3 155 256 257 
3 257 256 258 
3 259 157 156 
3 157 259 256 
3 260 261 262 
3 261 260 263 
3 264 265 266 
3 265 264 267 
3 268 269 270 
3 269 268 271 
3 272 273 274 
3 273 272 275 
3 276 277 278 
3 277 276 279 
3 280 281 282 
3 281 280 283 
3 284 285 286 
3 285 284 287 
