ply
format ascii 1.0
comment VCGLIB generated
comment TextureFile circleT/texture0.jpg
element vertex 48
property float x
property float y
property float z
element face 44
property list uchar int vertex_indices
property list uchar float texcoord
end_header
-207.567 279.367 0 
-215.482 213.128 0 
-215.885 246.769 0 
-206.387 180.738 0 
-191.095 308.702 0 
-189.218 151.805 0 
-167.592 332.774 0 
-165.146 128.302 0 
-138.66 349.943 0 
-135.811 111.83 0 
-106.269 359.039 0 
-103.212 103.512 0 
-72.6288 359.442 0 
-69.5714 103.915 0 
-40.0301 351.123 0 
-37.1811 113.011 0 
-10.6952 334.652 0 
-8.24868 130.179 0 
13.377 311.149 0 
15.2543 154.252 0 
30.546 282.216 0 
31.7261 183.587 0 
39.6416 249.826 0 
40.0441 216.185 0 
40.0441 216.185 0 
39.6416 249.826 0 
31.7261 183.587 0 
30.546 282.216 0 
15.2543 154.252 0 
13.377 311.149 0 
-8.24868 130.179 0 
-10.6952 334.652 0 
-37.1811 113.011 0 
-40.0301 351.123 0 
-69.5714 103.915 0 
-72.6288 359.442 0 
-103.212 103.512 0 
-106.269 359.039 0 
-135.811 111.83 0 
-138.66 349.943 0 
-165.146 128.302 0 
-167.592 332.774 0 
-189.218 151.805 0 
-191.095 308.702 0 
-206.387 180.738 0 
-207.567 279.367 0 
-215.482 213.128 0 
-215.885 246.769 0 
3 0 1 2 6 25.9459 34.9209 26.9353 26.641 26.9856 30.8461 
3 1 0 3 6 26.9353 26.641 25.9459 34.9209 25.7984 22.5922 
3 3 0 4 6 25.7984 22.5922 25.9459 34.9209 23.8869 38.5878 
3 3 4 5 6 25.7984 22.5922 23.8869 38.5878 23.6522 18.9756 
3 5 4 6 6 23.6522 18.9756 23.8869 38.5878 20.949 41.5968 
3 5 6 7 6 23.6522 18.9756 20.949 41.5968 20.6432 16.0378 
3 7 6 8 6 20.6432 16.0378 20.949 41.5968 17.3325 43.7429 
3 7 8 9 6 20.6432 16.0378 17.3325 43.7429 16.9763 13.9788 
3 9 8 10 6 16.9763 13.9788 17.3325 43.7429 13.2837 44.8799 
3 9 10 11 6 16.9763 13.9788 13.2837 44.8799 12.9015 12.939 
3 11 10 12 6 12.9015 12.939 13.2837 44.8799 9.0786 44.9302 
3 11 12 13 6 12.9015 12.939 9.0786 44.9302 8.69643 12.9894 
3 13 12 14 6 8.69643 12.9894 9.0786 44.9302 5.00377 43.8904 
3 13 14 15 6 8.69643 12.9894 5.00377 43.8904 4.64764 14.1263 
3 15 14 16 6 4.64764 14.1263 5.00377 43.8904 1.3369 41.8315 
3 15 16 17 6 4.64764 14.1263 1.3369 41.8315 1.03109 16.2724 
3 17 16 18 6 1.03109 16.2724 1.3369 41.8315 -1.67213 38.8936 
3 17 18 19 6 1.03109 16.2724 -1.67213 38.8936 -1.90679 19.2815 
3 19 18 20 6 -1.90679 19.2815 -1.67213 38.8936 -3.81825 35.277 
3 19 20 21 6 -1.90679 19.2815 -3.81825 35.277 -3.96576 22.9483 
3 21 20 22 6 -3.96576 22.9483 -3.81825 35.277 -4.9552 31.2282 
3 21 22 23 6 -3.96576 22.9483 -4.9552 31.2282 -5.00552 27.0232 
3 24 25 26 6 -5.00552 27.0232 -4.9552 31.2282 -3.96576 22.9483 
3 25 27 26 6 -4.9552 31.2282 -3.81825 35.277 -3.96576 22.9483 
3 26 27 28 6 -3.96576 22.9483 -3.81825 35.277 -1.90679 19.2815 
3 27 29 28 6 -3.81825 35.277 -1.67213 38.8936 -1.90679 19.2815 
3 28 29 30 6 -1.90679 19.2815 -1.67213 38.8936 1.03109 16.2724 
3 29 31 30 6 -1.67213 38.8936 1.3369 41.8315 1.03109 16.2724 
3 30 31 32 6 1.03109 16.2724 1.3369 41.8315 4.64764 14.1263 
3 31 33 32 6 1.3369 41.8315 5.00377 43.8904 4.64764 14.1263 
3 32 33 34 6 4.64764 14.1263 5.00377 43.8904 8.69643 12.9894 
3 33 35 34 6 5.00377 43.8904 9.0786 44.9302 8.69643 12.9894 
3 34 35 36 6 8.69643 12.9894 9.0786 44.9302 12.9015 12.939 
3 35 37 36 6 9.0786 44.9302 13.2837 44.8799 12.9015 12.939 
3 36 37 38 6 12.9015 12.939 13.2837 44.8799 16.9763 13.9788 
3 37 39 38 6 13.2837 44.8799 17.3325 43.7429 16.9763 13.9788 
3 38 39 40 6 16.9763 13.9788 17.3325 43.7429 20.6432 16.0378 
3 39 41 40 6 17.3325 43.7429 20.949 41.5968 20.6432 16.0378 
3 40 41 42 6 20.6432 16.0378 20.949 41.5968 23.6522 18.9756 
3 41 43 42 6 20.949 41.5968 23.8869 38.5878 23.6522 18.9756 
3 42 43 44 6 23.6522 18.9756 23.8869 38.5878 25.7984 22.5922 
3 43 45 44 6 23.8869 38.5878 25.9459 34.9209 25.7984 22.5922 
3 44 45 46 6 25.7984 22.5922 25.9459 34.9209 26.9353 26.641 
3 47 46 45 6 26.9856 30.8461 26.9353 26.641 25.9459 34.9209 
