ply
format ascii 1.0
comment VCGLIB generated
element vertex 48
property float x
property float y
property float z
element face 44
property list uchar int vertex_indices
end_header
-6061.9 -2620.84 565.545 
-6061.62 -2659.95 565.545 
-6064.34 -2640.41 565.545 
-6054.49 -2602.56 565.545 
-6053.94 -2678.12 565.545 
-6042.6 -2586.82 565.545 
-6041.81 -2693.68 565.545 
-6027.03 -2574.7 565.545 
-6026.08 -2705.57 565.545 
-6008.87 -2567.02 565.545 
-6007.8 -2712.99 565.545 
-5989.33 -2564.3 565.545 
-5988.22 -2715.42 565.545 
-5969.75 -2566.73 565.545 
-5968.68 -2712.7 565.545 
-5951.47 -2574.15 565.545 
-5950.52 -2705.02 565.545 
-5935.74 -2586.04 565.545 
-5934.95 -2692.9 565.545 
-5923.61 -2601.6 565.545 
-5923.06 -2677.16 565.545 
-5915.93 -2619.77 565.545 
-5915.65 -2658.88 565.545 
-5913.21 -2639.31 565.545 
-2897.79 -2083.79 -4.54747e-013 
-2985.86 -3248.25 -4.54747e-013 
-3018.48 -2660.22 -4.54747e-013 
-2802.17 -3807.8 -4.54747e-013 
-2632.02 -1558.23 -4.54747e-013 
-2479.91 -4300.74 -4.54747e-013 
-2239.28 -1119.37 -4.54747e-013 
-2041.05 -4693.48 -4.54747e-013 
-1746.34 -797.114 -4.54747e-013 
-1515.5 -4959.25 -4.54747e-013 
-1186.79 -613.419 -4.54747e-013 
-939.063 -5079.94 -4.54747e-013 
-598.756 -580.806 -4.54747e-013 
-351.034 -5047.33 -4.54747e-013 
-22.3231 -701.497 -4.54747e-013 
208.517 -4863.63 -4.54747e-013 
503.232 -967.267 -4.54747e-013 
701.459 -4541.38 -4.54747e-013 
942.092 -1360.01 -4.54747e-013 
1094.2 -4102.51 -4.54747e-013 
1264.35 -1852.95 -4.54747e-013 
1359.97 -3576.96 -4.54747e-013 
1448.05 -2412.5 -4.54747e-013 
1480.66 -3000.53 -4.54747e-013 
3 0 1 2 
3 1 0 3 
3 1 3 4 
3 4 3 5 
3 4 5 6 
3 6 5 7 
3 6 7 8 
3 8 7 9 
3 8 9 10 
3 10 9 11 
3 10 11 12 
3 12 11 13 
3 12 13 14 
3 14 13 15 
3 14 15 16 
3 16 15 17 
3 16 17 18 
3 18 17 19 
3 18 19 20 
3 20 19 21 
3 20 21 22 
3 22 21 23 
3 24 25 26 
3 25 24 27 
3 27 24 28 
3 27 28 29 
3 29 28 30 
3 29 30 31 
3 31 30 32 
3 31 32 33 
3 33 32 34 
3 33 34 35 
3 35 34 36 
3 35 36 37 
3 37 36 38 
3 37 38 39 
3 39 38 40 
3 39 40 41 
3 41 40 42 
3 41 42 43 
3 43 42 44 
3 43 44 45 
3 45 44 46 
3 45 46 47 
