ply
format ascii 1.0
comment VCGLIB generated
comment TextureFile cubes/Translucent_Glass_Sky_Reflection_.jpg
comment TextureFile cubes/Translucent_Glass_Tinted_.jpg
element vertex 72
property float x
property float y
property float z
element face 36
property list uchar int vertex_indices
property list uchar float texcoord
property int texnumber
end_header
-194.828 227.268 -24.1875 
-267.022 73.159 -24.1875 
-314.125 168.048 -24.1875 
-147.724 132.379 -24.1875 
-194.828 227.268 -24.1875 
-147.724 132.379 40.5625 
-147.724 132.379 -24.1875 
-194.828 227.268 40.5625 
-147.724 132.379 40.5625 
-267.022 73.159 -24.1875 
-147.724 132.379 -24.1875 
-267.022 73.159 40.5625 
-314.125 168.048 40.5625 
-267.022 73.159 -24.1875 
-267.022 73.159 40.5625 
-314.125 168.048 -24.1875 
-314.125 168.048 40.5625 
-194.828 227.268 -24.1875 
-314.125 168.048 -24.1875 
-194.828 227.268 40.5625 
-267.022 73.159 40.5625 
-194.828 227.268 40.5625 
-314.125 168.048 40.5625 
-147.724 132.379 40.5625 
-243.587 19.2055 68.9126 
-66.7543 -1.11135 136.871 
-154.932 36.334 11.6195 
-155.409 -18.2398 194.164 
-154.932 36.334 11.6195 
-243.587 -34.7475 52.7827 
-243.587 19.2055 68.9126 
-154.932 -17.619 -4.51039 
-155.409 -18.2398 194.164 
-243.587 -34.7475 52.7827 
-155.409 -72.1928 178.034 
-243.587 19.2055 68.9126 
-66.7543 -55.0643 120.741 
-155.409 -18.2398 194.164 
-155.409 -72.1928 178.034 
-66.7543 -1.11135 136.871 
-154.932 -17.619 -4.51039 
-66.7543 -1.11135 136.871 
-66.7543 -55.0643 120.741 
-154.932 36.334 11.6195 
-66.7543 -55.0643 120.741 
-243.587 -34.7475 52.7827 
-154.932 -17.619 -4.51039 
-155.409 -72.1928 178.034 
-57.147 16.491 0 
-136.334 120.991 0 
-136.334 16.491 0 
-57.147 120.991 0 
-136.334 120.991 0 
-136.334 16.491 -47.75 
-136.334 16.491 0 
-136.334 120.991 -47.75 
-57.147 16.491 0 
-136.334 16.491 -47.75 
-57.147 16.491 -47.75 
-136.334 16.491 0 
-57.147 120.991 -47.75 
-57.147 16.491 0 
-57.147 16.491 -47.75 
-57.147 120.991 0 
-136.334 120.991 0 
-57.147 120.991 -47.75 
-136.334 120.991 -47.75 
-57.147 120.991 0 
-57.147 120.991 -47.75 
-136.334 16.491 -47.75 
-136.334 120.991 -47.75 
-57.147 16.491 -47.75 
3 0 1 2 6 2.70594 3.1565 3.70863 1.0161 4.36285 2.33401 0 
3 1 0 3 6 3.70863 1.0161 2.70594 3.1565 2.05172 1.8386 0 
3 4 5 6 6 4.03047 -0.335938 2.55912 0.563368 2.55912 -0.335938 0 
3 5 4 7 6 2.55912 0.563368 4.03047 -0.335938 4.03047 0.563368 0 
3 8 9 10 6 -1.02025 0.563368 -2.87007 -0.335938 -1.02025 -0.335938 0 
3 9 8 11 6 -2.87007 -0.335938 -1.02025 0.563368 -2.87007 0.563368 0 
3 12 13 14 6 -4.03047 0.563368 -2.55912 -0.335938 -2.55912 0.563368 0 
3 13 12 15 6 -2.55912 -0.335938 -4.03047 0.563368 -4.03047 -0.335938 0 
3 16 17 18 6 2.87007 0.563368 1.02025 -0.335938 2.87007 -0.335938 0 
3 17 16 19 6 1.02025 -0.335938 2.87007 0.563368 1.02025 0.563368 0 
3 20 21 22 6 -3.70863 1.0161 -2.70594 3.1565 -4.36285 2.33401 0 
3 21 20 23 6 -2.70594 3.1565 -3.70863 1.0161 -2.05172 1.8386 0 
3 24 25 26 6 10.1495 2.52183 2.78143 5.47726 6.4555 0.0302211 1 
3 25 24 27 6 2.78143 5.47726 10.1495 2.52183 6.4754 7.96887 1 
3 28 29 30 6 1.12981 5.48384 5.29979 8.30699 3.23059 9.41324 1 
3 29 28 31 6 5.29979 8.30699 1.12981 5.48384 3.19901 4.37758 1 
3 32 33 34 6 -0.482157 3.34756 -0.503779 -3.62911 1.72507 2.5516 1 
3 33 32 35 6 -0.503779 -3.62911 -0.482157 3.34756 -2.711 -2.83316 1 
3 36 37 38 6 -3.19901 4.37758 -3.23059 9.41324 -5.29979 8.30699 1 
3 37 36 39 6 -3.23059 9.41324 -3.19901 4.37758 -1.12981 5.48384 1 
3 40 41 42 6 0.503779 -3.62911 0.482157 3.34756 -1.72507 2.5516 1 
3 41 40 43 6 0.482157 3.34756 0.503779 -3.62911 2.711 -2.83316 1 
3 44 45 46 6 -2.78143 5.47726 -10.1495 2.52183 -6.4555 0.0302211 1 
3 45 44 47 6 -10.1495 2.52183 -2.78143 5.47726 -6.4754 7.96887 1 
3 48 49 50 6 6.70153e+033 0 1.25972e-038 0 2.8026e-045 0 -23670 
3 49 48 51 6 6.70153e+033 0 1.25972e-038 0 2.8026e-045 0 -23670 
3 52 53 54 6 6.70153e+033 0 1.25972e-038 0 2.8026e-045 0 -23670 
3 53 52 55 6 6.70153e+033 0 1.25972e-038 0 2.8026e-045 0 -23670 
3 56 57 58 6 6.70153e+033 0 1.25972e-038 0 2.8026e-045 0 -23670 
3 57 56 59 6 6.70153e+033 0 1.25972e-038 0 2.8026e-045 0 -23670 
3 60 61 62 6 6.70153e+033 0 1.25972e-038 0 2.8026e-045 0 -23670 
3 61 60 63 6 6.70153e+033 0 1.25972e-038 0 2.8026e-045 0 -23670 
3 64 65 66 6 6.70153e+033 0 1.25972e-038 0 2.8026e-045 0 -23670 
3 65 64 67 6 6.70153e+033 0 1.25972e-038 0 2.8026e-045 0 -23670 
3 68 69 70 6 6.70153e+033 0 1.25972e-038 0 2.8026e-045 0 -23670 
3 69 68 71 6 6.70153e+033 0 1.25972e-038 0 2.8026e-045 0 -23670 
