ply
format ascii 1.0
comment VCGLIB generated
element vertex 192
property float x
property float y
property float z
element face 184
property list uchar int vertex_indices
end_header
-6061.9 -2620.84 565.545 
-6061.62 -2659.95 565.545 
-6064.34 -2640.41 565.545 
-6054.49 -2602.56 565.545 
-6053.94 -2678.12 565.545 
-6042.6 -2586.82 565.545 
-6041.81 -2693.68 565.545 
-6027.03 -2574.7 565.545 
-6026.08 -2705.57 565.545 
-6008.87 -2567.02 565.545 
-6007.8 -2712.99 565.545 
-5989.33 -2564.3 565.545 
-5988.22 -2715.42 565.545 
-5969.75 -2566.73 565.545 
-5968.68 -2712.7 565.545 
-5951.47 -2574.15 565.545 
-5950.52 -2705.02 565.545 
-5935.74 -2586.04 565.545 
-5934.95 -2692.9 565.545 
-5923.61 -2601.6 565.545 
-5923.06 -2677.16 565.545 
-5915.93 -2619.77 565.545 
-5915.65 -2658.88 565.545 
-5913.21 -2639.31 565.545 
-5913.21 -2639.31 565.545 
-5915.65 -2658.88 46924.4 
-5915.65 -2658.88 565.545 
-5913.21 -2639.31 46924.4 
-5923.06 -2677.16 46924.4 
-5923.06 -2677.16 565.545 
-5934.95 -2692.9 46924.4 
-5934.95 -2692.9 565.545 
-5950.52 -2705.02 565.545 
-5950.52 -2705.02 46924.4 
-5968.68 -2712.7 565.545 
-5968.68 -2712.7 46924.4 
-5988.22 -2715.42 565.545 
-5988.22 -2715.42 46924.4 
-6007.8 -2712.99 565.545 
-6007.8 -2712.99 46924.4 
-6026.08 -2705.57 565.545 
-6026.08 -2705.57 46924.4 
-6041.81 -2693.68 565.545 
-6041.81 -2693.68 46924.4 
-6053.94 -2678.12 46924.4 
-6053.94 -2678.12 565.545 
-6061.62 -2659.95 46924.4 
-6061.62 -2659.95 565.545 
-6064.34 -2640.41 46924.4 
-6064.34 -2640.41 565.545 
-6061.9 -2620.84 46924.4 
-6061.9 -2620.84 565.545 
-6054.49 -2602.56 46924.4 
-6054.49 -2602.56 565.545 
-6042.6 -2586.82 46924.4 
-6042.6 -2586.82 565.545 
-6027.03 -2574.7 565.545 
-6027.03 -2574.7 46924.4 
-6008.87 -2567.02 565.545 
-6008.87 -2567.02 46924.4 
-5989.33 -2564.3 565.545 
-5989.33 -2564.3 46924.4 
-5969.75 -2566.73 565.545 
-5969.75 -2566.73 46924.4 
-5951.47 -2574.15 565.545 
-5951.47 -2574.15 46924.4 
-5935.74 -2586.04 565.545 
-5935.74 -2586.04 46924.4 
-5923.61 -2601.6 46924.4 
-5923.61 -2601.6 565.545 
-5915.93 -2619.77 46924.4 
-5915.93 -2619.77 565.545 
-6061.62 -2659.95 46924.4 
-6061.9 -2620.84 46924.4 
-6064.34 -2640.41 46924.4 
-6054.49 -2602.56 46924.4 
-6053.94 -2678.12 46924.4 
-6042.6 -2586.82 46924.4 
-6041.81 -2693.68 46924.4 
-6027.03 -2574.7 46924.4 
-6026.08 -2705.57 46924.4 
-6008.87 -2567.02 46924.4 
-6007.8 -2712.99 46924.4 
-5989.33 -2564.3 46924.4 
-5988.22 -2715.42 46924.4 
-5969.75 -2566.73 46924.4 
-5968.68 -2712.7 46924.4 
-5951.47 -2574.15 46924.4 
-5950.52 -2705.02 46924.4 
-5935.74 -2586.04 46924.4 
-5934.95 -2692.9 46924.4 
-5923.61 -2601.6 46924.4 
-5923.06 -2677.16 46924.4 
-5915.93 -2619.77 46924.4 
-5915.65 -2658.88 46924.4 
-5913.21 -2639.31 46924.4 
-2897.79 -2083.79 -4.54747e-013 
-2985.86 -3248.25 -4.54747e-013 
-3018.48 -2660.22 -4.54747e-013 
-2802.17 -3807.8 -4.54747e-013 
-2632.02 -1558.23 -4.54747e-013 
-2479.91 -4300.74 -4.54747e-013 
-2239.28 -1119.37 -4.54747e-013 
-2041.05 -4693.48 -4.54747e-013 
-1746.34 -797.114 -4.54747e-013 
-1515.5 -4959.25 -4.54747e-013 
-1186.79 -613.419 -4.54747e-013 
-939.063 -5079.94 -4.54747e-013 
-598.756 -580.806 -4.54747e-013 
-351.034 -5047.33 -4.54747e-013 
-22.3231 -701.497 -4.54747e-013 
208.517 -4863.63 -4.54747e-013 
503.232 -967.267 -4.54747e-013 
701.459 -4541.38 -4.54747e-013 
942.092 -1360.01 -4.54747e-013 
1094.2 -4102.51 -4.54747e-013 
1264.35 -1852.95 -4.54747e-013 
1359.97 -3576.96 -4.54747e-013 
1448.05 -2412.5 -4.54747e-013 
1480.66 -3000.53 -4.54747e-013 
-2239.28 -1119.37 5666.94 
-1746.34 -797.114 -4.54747e-013 
-2239.28 -1119.37 -4.54747e-013 
-1746.34 -797.114 5666.94 
-1186.79 -613.419 -4.54747e-013 
-1186.79 -613.419 5666.94 
-598.756 -580.806 -4.54747e-013 
-598.756 -580.806 5666.94 
-22.3231 -701.497 -4.54747e-013 
-22.3231 -701.497 5666.94 
503.232 -967.267 -4.54747e-013 
503.232 -967.267 5666.94 
942.092 -1360.01 -4.54747e-013 
942.092 -1360.01 5666.94 
1264.35 -1852.95 5666.94 
1264.35 -1852.95 -4.54747e-013 
1448.05 -2412.5 5666.94 
1448.05 -2412.5 -4.54747e-013 
1480.66 -3000.53 5666.94 
1480.66 -3000.53 -4.54747e-013 
1359.97 -3576.96 5666.94 
1359.97 -3576.96 -4.54747e-013 
1094.2 -4102.51 5666.94 
1094.2 -4102.51 -4.54747e-013 
701.459 -4541.38 5666.94 
701.459 -4541.38 -4.54747e-013 
208.517 -4863.63 -4.54747e-013 
208.517 -4863.63 5666.94 
-351.034 -5047.33 -4.54747e-013 
-351.034 -5047.33 5666.94 
-939.063 -5079.94 -4.54747e-013 
-939.063 -5079.94 5666.94 
-1515.5 -4959.25 -4.54747e-013 
-1515.5 -4959.25 5666.94 
-2041.05 -4693.48 -4.54747e-013 
-2041.05 -4693.48 5666.94 
-2479.91 -4300.74 -4.54747e-013 
-2479.91 -4300.74 5666.94 
-2802.17 -3807.8 5666.94 
-2802.17 -3807.8 -4.54747e-013 
-2985.86 -3248.25 5666.94 
-2985.86 -3248.25 -4.54747e-013 
-3018.48 -2660.22 5666.94 
-3018.48 -2660.22 -4.54747e-013 
-2897.79 -2083.79 5666.94 
-2897.79 -2083.79 -4.54747e-013 
-2632.02 -1558.23 5666.94 
-2632.02 -1558.23 -4.54747e-013 
-2985.86 -3248.25 5666.94 
-2897.79 -2083.79 5666.94 
-3018.48 -2660.22 5666.94 
-2802.17 -3807.8 5666.94 
-2632.02 -1558.23 5666.94 
-2479.91 -4300.74 5666.94 
-2239.28 -1119.37 5666.94 
-2041.05 -4693.48 5666.94 
-1746.34 -797.114 5666.94 
-1515.5 -4959.25 5666.94 
-1186.79 -613.419 5666.94 
-939.063 -5079.94 5666.94 
-598.756 -580.806 5666.94 
-351.034 -5047.33 5666.94 
-22.3231 -701.497 5666.94 
208.517 -4863.63 5666.94 
503.232 -967.267 5666.94 
701.459 -4541.38 5666.94 
942.092 -1360.01 5666.94 
1094.2 -4102.51 5666.94 
1264.35 -1852.95 5666.94 
1359.97 -3576.96 5666.94 
1448.05 -2412.5 5666.94 
1480.66 -3000.53 5666.94 
3 0 1 2 
3 1 0 3 
3 1 3 4 
3 4 3 5 
3 4 5 6 
3 6 5 7 
3 6 7 8 
3 8 7 9 
3 8 9 10 
3 10 9 11 
3 10 11 12 
3 12 11 13 
3 12 13 14 
3 14 13 15 
3 14 15 16 
3 16 15 17 
3 16 17 18 
3 18 17 19 
3 18 19 20 
3 20 19 21 
3 20 21 22 
3 22 21 23 
3 24 25 26 
3 25 24 27 
3 26 28 29 
3 28 26 25 
3 29 30 31 
3 30 29 28 
3 30 32 31 
3 32 30 33 
3 33 34 32 
3 34 33 35 
3 35 36 34 
3 36 35 37 
3 37 38 36 
3 38 37 39 
3 39 40 38 
3 40 39 41 
3 41 42 40 
3 42 41 43 
3 44 42 43 
3 42 44 45 
3 46 45 44 
3 45 46 47 
3 48 47 46 
3 47 48 49 
3 50 49 48 
3 49 50 51 
3 52 51 50 
3 51 52 53 
3 54 53 52 
3 53 54 55 
3 54 56 55 
3 56 54 57 
3 57 58 56 
3 58 57 59 
3 59 60 58 
3 60 59 61 
3 61 62 60 
3 62 61 63 
3 63 64 62 
3 64 63 65 
3 65 66 64 
3 66 65 67 
3 66 68 69 
3 68 66 67 
3 69 70 71 
3 70 69 68 
3 71 27 24 
3 27 71 70 
3 72 73 74 
3 73 72 75 
3 75 72 76 
3 75 76 77 
3 77 76 78 
3 77 78 79 
3 79 78 80 
3 79 80 81 
3 81 80 82 
3 81 82 83 
3 83 82 84 
3 83 84 85 
3 85 84 86 
3 85 86 87 
3 87 86 88 
3 87 88 89 
3 89 88 90 
3 89 90 91 
3 91 90 92 
3 91 92 93 
3 93 92 94 
3 93 94 95 
3 96 97 98 
3 97 96 99 
3 99 96 100 
3 99 100 101 
3 101 100 102 
3 101 102 103 
3 103 102 104 
3 103 104 105 
3 105 104 106 
3 105 106 107 
3 107 106 108 
3 107 108 109 
3 109 108 110 
3 109 110 111 
3 111 110 112 
3 111 112 113 
3 113 112 114 
3 113 114 115 
3 115 114 116 
3 115 116 117 
3 117 116 118 
3 117 118 119 
3 120 121 122 
3 121 120 123 
3 123 124 121 
3 124 123 125 
3 125 126 124 
3 126 125 127 
3 127 128 126 
3 128 127 129 
3 129 130 128 
3 130 129 131 
3 131 132 130 
3 132 131 133 
3 132 134 135 
3 134 132 133 
3 135 136 137 
3 136 135 134 
3 137 138 139 
3 138 137 136 
3 139 140 141 
3 140 139 138 
3 141 142 143 
3 142 141 140 
3 143 144 145 
3 144 143 142 
3 144 146 145 
3 146 144 147 
3 147 148 146 
3 148 147 149 
3 149 150 148 
3 150 149 151 
3 151 152 150 
3 152 151 153 
3 153 154 152 
3 154 153 155 
3 155 156 154 
3 156 155 157 
3 158 156 157 
3 156 158 159 
3 160 159 158 
3 159 160 161 
3 162 161 160 
3 161 162 163 
3 164 163 162 
3 163 164 165 
3 166 165 164 
3 165 166 167 
3 120 167 166 
3 167 120 122 
3 168 169 170 
3 169 168 171 
3 169 171 172 
3 172 171 173 
3 172 173 174 
3 174 173 175 
3 174 175 176 
3 176 175 177 
3 176 177 178 
3 178 177 179 
3 178 179 180 
3 180 179 181 
3 180 181 182 
3 182 181 183 
3 182 183 184 
3 184 183 185 
3 184 185 186 
3 186 185 187 
3 186 187 188 
3 188 187 189 
3 188 189 190 
3 190 189 191 
