ply
format ascii 1.0
comment VCGLIB generated
element vertex 12
property float x
property float y
property float z
property uchar red
property uchar green
property uchar blue
property uchar alpha
element face 8
property list uchar int vertex_indices
end_header
-14.9251 15.6872 0 170 0 0 255 
-6.31895 0.780915 0 170 0 0 255 
-14.9251 5.74967 0 170 0 0 255 
-6.31895 20.6559 0 170 0 0 255 
2.28717 5.74967 0 170 0 0 255 
2.28717 15.6872 0 170 0 0 255 
2.28717 15.6872 0 50 150 150 255 
-6.31895 20.6559 0 50 150 150 255 
2.28717 5.74967 0 50 150 150 255 
-6.31895 0.780915 0 50 150 150 255 
-14.9251 15.6872 0 50 150 150 255 
-14.9251 5.74967 0 50 150 150 255 
3 0 1 2 
3 1 0 3 
3 1 3 4 
3 4 3 5 
3 6 7 8 
3 8 7 9 
3 7 10 9 
3 11 9 10 
