ply
format ascii 1.0
comment VCGLIB generated
comment TextureFile prism/texture0.jpg
element vertex 36
property float x
property float y
property float z
element face 20
property list uchar int vertex_indices
property list uchar float texcoord
end_header
63.3528 0 5.33009 
145.808 0 50.8398 
117.718 0 4.2823 
37.0777 0 52.9354 
119.533 0 98.4451 
65.1676 0 99.4929 
145.808 -125.063 50.8398 
63.3528 -125.063 5.33009 
117.718 -125.063 4.2823 
37.0777 -125.063 52.9354 
119.533 -125.063 98.4451 
65.1676 -125.063 99.4929 
65.1676 0 99.4929 
37.0777 -125.063 52.9354 
65.1676 -125.063 99.4929 
37.0777 0 52.9354 
119.533 -125.063 98.4451 
65.1676 0 99.4929 
65.1676 -125.063 99.4929 
119.533 0 98.4451 
145.808 0 50.8398 
119.533 -125.063 98.4451 
145.808 -125.063 50.8398 
119.533 0 98.4451 
117.718 0 4.2823 
145.808 -125.063 50.8398 
117.718 -125.063 4.2823 
145.808 0 50.8398 
117.718 0 4.2823 
63.3528 -125.063 5.33009 
63.3528 0 5.33009 
117.718 -125.063 4.2823 
37.0777 0 52.9354 
63.3528 -125.063 5.33009 
37.0777 -125.063 52.9354 
63.3528 0 5.33009 
3 0 1 2 6 3.35076e+033 0 1.61787e-038 0 2.8026e-045 0 
3 1 0 3 6 3.35076e+033 0 1.61787e-038 0 2.8026e-045 0 
3 1 3 4 6 3.35076e+033 0 1.61787e-038 0 2.8026e-045 0 
3 4 3 5 6 3.35076e+033 0 1.61787e-038 0 2.8026e-045 0 
3 6 7 8 6 3.35076e+033 0 1.61787e-038 0 2.8026e-045 0 
3 7 6 9 6 3.35076e+033 0 1.61787e-038 0 2.8026e-045 0 
3 9 6 10 6 3.35076e+033 0 1.61787e-038 0 2.8026e-045 0 
3 9 10 11 6 3.35076e+033 0 1.61787e-038 0 2.8026e-045 0 
3 12 13 14 6 3.35076e+033 0 1.61787e-038 0 2.8026e-045 0 
3 13 12 15 6 3.35076e+033 0 1.61787e-038 0 2.8026e-045 0 
3 16 17 18 6 -5.21094 -4.90055 0 -2.63493 -5.21094 -2.63493 
3 17 16 19 6 0 -2.63493 -5.21094 -4.90055 0 -4.90055 
3 20 21 22 6 3.35076e+033 0 1.61788e-038 0 2.8026e-045 0 
3 21 20 23 6 3.35076e+033 0 1.61788e-038 0 2.8026e-045 0 
3 24 25 26 6 0 2.68663 -5.21094 4.95225 -5.21094 2.68663 
3 25 24 27 6 -5.21094 4.95225 0 2.68663 0 4.95225 
3 28 29 30 6 3.35076e+033 0 1.61788e-038 0 2.8026e-045 0 
3 29 28 31 6 3.35076e+033 0 1.61788e-038 0 2.8026e-045 0 
3 32 33 34 6 0 1.18451 5.21094 -1.08112 5.21094 1.18451 
3 33 32 35 6 5.21094 -1.08112 0 1.18451 0 -1.08112 
