ply
format ascii 1.0
comment VCGLIB generated
comment TextureFile prism/tex0.jpg
comment TextureFile prism/tex1.jpg
element vertex 36
property float x
property float y
property float z
property uchar red
property uchar green
property uchar blue
property uchar alpha
element face 20
property list uchar int vertex_indices
property list uchar float texcoord
property int texnumber
end_header
63.3528 0 5.33009 150 50 50 255
145.808 0 50.8398 150 50 50 255
117.718 0 4.2823 150 50 50 255
37.0777 0 52.9354 150 50 50 255
119.533 0 98.4451 150 50 50 255
65.1676 0 99.4929 150 50 50 255
145.808 -125.063 50.8398 150 50 50 255
63.3528 -125.063 5.33009 150 50 50 255
117.718 -125.063 4.2823 150 50 50 255
37.0777 -125.063 52.9354 150 50 50 255
119.533 -125.063 98.4451 150 50 50 255
65.1676 -125.063 99.4929 150 50 50 255
65.1676 0 99.4929 0 0 0 255
37.0777 -125.063 52.9354 0 0 0 255
65.1676 -125.063 99.4929 0 0 0 255
37.0777 0 52.9354 0 0 0 255
119.533 -125.063 98.4451 0 0 0 255
65.1676 0 99.4929 0 0 0 255
65.1676 -125.063 99.4929 0 0 0 255
119.533 0 98.4451 0 0 0 255
145.808 0 50.8398 0 100 200 255
119.533 -125.063 98.4451 0 100 200 255
145.808 -125.063 50.8398 0 100 200 255
119.533 0 98.4451 0 100 200 255
117.718 0 4.2823 0 100 200 255
145.808 -125.063 50.8398 0 100 200 255
117.718 -125.063 4.2823 0 100 200 255
145.808 0 50.8398 0 100 200 255
117.718 0 4.2823 0 100 200 255
63.3528 -125.063 5.33009 0 100 200 255
63.3528 0 5.33009 0 100 200 255
117.718 -125.063 4.2823 0 100 200 255
37.0777 0 52.9354 0 100 200 255
63.3528 -125.063 5.33009 0 100 200 255
37.0777 -125.063 52.9354 0 100 200 255
63.3528 0 5.33009 0 100 200 255
3 0 1 2 6 6.70153e+033 0 3.86028e-038 0 2.8026e-045 0 32688 
3 1 0 3 6 6.70153e+033 0 3.86028e-038 0 2.8026e-045 0 32688 
3 1 3 4 6 6.70153e+033 0 3.86028e-038 0 2.8026e-045 0 32688 
3 4 3 5 6 6.70153e+033 0 3.86028e-038 0 2.8026e-045 0 32688 
3 6 7 8 6 6.70153e+033 0 3.86028e-038 0 2.8026e-045 0 32688 
3 7 6 9 6 6.70153e+033 0 3.86028e-038 0 2.8026e-045 0 32688 
3 9 6 10 6 6.70153e+033 0 3.86028e-038 0 2.8026e-045 0 32688 
3 9 10 11 6 6.70153e+033 0 3.86028e-038 0 2.8026e-045 0 32688 
3 12 13 14 6 0 14.8568 15.6328 8.05988 15.6328 14.8568 0 
3 13 12 15 6 15.6328 8.05988 0 14.8568 0 8.05988 0 
3 16 17 18 6 -5.21094 -4.90055 0 -2.63493 -5.21094 -2.63493 1 
3 17 16 19 6 0 -2.63493 -5.21094 -4.90055 0 -4.90055 1 
3 20 21 22 6 0 -3.24335 -15.6328 3.55353 -15.6328 -3.24335 2 
3 21 20 23 6 -15.6328 3.55353 0 -3.24335 0 3.55353 2 
3 24 25 26 6 0 2.68663 -5.21094 4.95225 -5.21094 2.68663 2 
3 25 24 27 6 -5.21094 4.95225 0 2.68663 0 4.95225 2 
3 28 29 30 6 0 -14.7017 15.6328 -7.90479 0 -7.90479 2 
3 29 28 31 6 15.6328 -7.90479 0 -14.7017 15.6328 -14.7017 2 
3 32 33 34 6 0 1.18451 5.21094 -1.08112 5.21094 1.18451 2 
3 33 32 35 6 5.21094 -1.08112 0 1.18451 0 -1.08112 2 
