ply
format ascii 1.0
comment VCGLIB generated
comment TextureFile prism/Metal_Steel_Textured_.jpg
comment TextureFile prism/Carpet_Pattern_LeafSquares_Tan_.jpg
element vertex 36
property float x
property float y
property float z
element face 20
property list uchar int vertex_indices
property list uchar float texcoord
property int texnumber
end_header
63.3528 0 5.33009 
145.808 0 50.8398 
117.718 0 4.2823 
37.0777 0 52.9354 
119.533 0 98.4451 
65.1676 0 99.4929 
65.1676 0 99.4929 
37.0777 -125.063 52.9354 
65.1676 -125.063 99.4929 
37.0777 0 52.9354 
117.718 0 4.2823 
145.808 -125.063 50.8398 
117.718 -125.063 4.2823 
145.808 0 50.8398 
117.718 0 4.2823 
63.3528 -125.063 5.33009 
63.3528 0 5.33009 
117.718 -125.063 4.2823 
37.0777 0 52.9354 
63.3528 -125.063 5.33009 
37.0777 -125.063 52.9354 
63.3528 0 5.33009 
145.808 -125.063 50.8398 
63.3528 -125.063 5.33009 
117.718 -125.063 4.2823 
37.0777 -125.063 52.9354 
119.533 -125.063 98.4451 
65.1676 -125.063 99.4929 
119.533 -125.063 98.4451 
65.1676 0 99.4929 
65.1676 -125.063 99.4929 
119.533 0 98.4451 
145.808 0 50.8398 
119.533 -125.063 98.4451 
145.808 -125.063 50.8398 
119.533 0 98.4451 
3 0 1 2 6 6.70153e+033 0 9.78006e-035 0 2.8026e-045 0 -48 
3 1 0 3 6 6.70153e+033 0 9.78006e-035 0 2.8026e-045 0 -48 
3 1 3 4 6 6.70153e+033 0 9.78006e-035 0 2.8026e-045 0 -48 
3 4 3 5 6 6.70153e+033 0 9.78006e-035 0 2.8026e-045 0 -48 
3 6 7 8 6 6.70153e+033 0 9.78006e-035 0 2.8026e-045 0 -48 
3 7 6 9 6 6.70153e+033 0 9.78006e-035 0 2.8026e-045 0 -48 
3 10 11 12 6 6.70153e+033 0 9.78006e-035 0 2.8026e-045 0 -48 
3 11 10 13 6 6.70153e+033 0 9.78006e-035 0 2.8026e-045 0 -48 
3 14 15 16 6 6.70153e+033 0 9.78006e-035 0 2.8026e-045 0 -48 
3 15 14 17 6 6.70153e+033 0 9.78006e-035 0 2.8026e-045 0 -48 
3 18 19 20 6 6.70153e+033 0 9.78006e-035 0 2.8026e-045 0 -48 
3 19 18 21 6 6.70153e+033 0 9.78006e-035 0 2.8026e-045 0 -48 
3 22 23 24 6 6.70153e+033 0 9.78006e-035 0 2.8026e-045 0 -48 
3 23 22 25 6 6.70153e+033 0 9.78006e-035 0 2.8026e-045 0 -48 
3 25 22 26 6 6.70153e+033 0 9.78006e-035 0 2.8026e-045 0 -48 
3 25 26 27 6 6.70153e+033 0 9.78006e-035 0 2.8026e-045 0 -48 
3 28 29 30 6 -5.21094 -4.90055 0 -2.63493 -5.21094 -2.63493 0 
3 29 28 31 6 0 -2.63493 -5.21094 -4.90055 0 -4.90055 0 
3 32 33 34 6 0 -3.24335 -15.6328 3.55353 -15.6328 -3.24335 1 
3 33 32 35 6 -15.6328 3.55353 0 -3.24335 0 3.55353 1 
