ply
format ascii 1.0
comment VCGLIB generated
element vertex 12
property float x
property float y
property float z
property uchar red
property uchar green
property uchar blue
property uchar alpha
element face 4
property list uchar int vertex_indices
end_header
-278.667 166.408 0 20 20 200 255
-109.518 -119.634 0 20 20 200 255
-109.518 -38.0967 178.029 20 20 200 255
-109.518 -38.0967 178.029 150 150 50 255
-109.518 -119.634 0 150 150 50 255
-278.667 166.408 0 150 150 50 255
-278.667 -203.626 0 150 150 50 255
-583.64 66.3323 0 150 150 50 255
-500.691 206.794 0 150 150 50 255
-500.691 206.794 0 20 20 200 255
-583.64 66.3323 0 20 20 200 255
-278.667 -203.626 0 20 20 200 255
3 0 1 2 
3 3 4 5 
3 6 7 8 
3 9 10 11 
